<?xml version="1.0" encoding="UTF-8" standalone="no"?>
<!-- Created with Inkscape (http://www.inkscape.org/) -->

<svg
   xmlns:dc="http://purl.org/dc/elements/1.1/"
   xmlns:cc="http://creativecommons.org/ns#"
   xmlns:rdf="http://www.w3.org/1999/02/22-rdf-syntax-ns#"
   xmlns:svg="http://www.w3.org/2000/svg"
   xmlns="http://www.w3.org/2000/svg"
   xmlns:sodipodi="http://sodipodi.sourceforge.net/DTD/sodipodi-0.dtd"
   xmlns:inkscape="http://www.inkscape.org/namespaces/inkscape"
   width="210mm"
   height="297mm"
   viewBox="0 0 744.09448819 1052.3622047"
   id="svg2"
   version="1.1"
   inkscape:version="0.91 r13725"
   sodipodi:docname="IT.svg">
  <defs
     id="defs4">
    <inkscape:path-effect
       effect="skeletal"
       id="path-effect3424"
       is_visible="true"
       pattern="m 286.58537,164.7561 c 0,-2.76 2.24,-5 5,-5 2.76,0 5,2.24 5,5 0,2.76 -2.24,5 -5,5 -2.76,0 -5,-2.24 -5,-5 z"
       copytype="single_stretched"
       prop_scale="1"
       scale_y_rel="false"
       spacing="0"
       normal_offset="0"
       tang_offset="0"
       prop_units="false"
       vertical_pattern="false"
       fuse_tolerance="0" />
    <inkscape:path-effect
       effect="skeletal"
       id="path-effect3420"
       is_visible="true"
       pattern="m 182.92683,470.85366 c 0,-2.76 2.24,-5 5,-5 2.76,0 5,2.24 5,5 0,2.76 -2.24,5 -5,5 -2.76,0 -5,-2.24 -5,-5 z"
       copytype="single_stretched"
       prop_scale="1"
       scale_y_rel="false"
       spacing="0"
       normal_offset="0"
       tang_offset="0"
       prop_units="false"
       vertical_pattern="false"
       fuse_tolerance="0" />
    <inkscape:path-effect
       effect="skeletal"
       id="path-effect3416"
       is_visible="true"
       pattern="M 0,5 C 0,2.24 2.24,0 5,0 7.76,0 10,2.24 10,5 10,7.76 7.76,10 5,10 2.24,10 0,7.76 0,5 Z"
       copytype="single_stretched"
       prop_scale="1"
       scale_y_rel="false"
       spacing="0"
       normal_offset="0"
       tang_offset="0"
       prop_units="false"
       vertical_pattern="false"
       fuse_tolerance="0" />
    <inkscape:path-effect
       effect="skeletal"
       id="path-effect3412"
       is_visible="true"
       pattern="M 0,5 C 0,2.24 2.24,0 5,0 7.76,0 10,2.24 10,5 10,7.76 7.76,10 5,10 2.24,10 0,7.76 0,5 Z"
       copytype="single_stretched"
       prop_scale="1"
       scale_y_rel="false"
       spacing="0"
       normal_offset="0"
       tang_offset="0"
       prop_units="false"
       vertical_pattern="false"
       fuse_tolerance="0" />
    <inkscape:path-effect
       effect="skeletal"
       id="path-effect3408"
       is_visible="true"
       pattern="M 0,5 C 0,2.24 2.24,0 5,0 7.76,0 10,2.24 10,5 10,7.76 7.76,10 5,10 2.24,10 0,7.76 0,5 Z"
       copytype="single_stretched"
       prop_scale="1"
       scale_y_rel="false"
       spacing="0"
       normal_offset="0"
       tang_offset="0"
       prop_units="false"
       vertical_pattern="false"
       fuse_tolerance="0" />
    <inkscape:path-effect
       effect="spiro"
       id="path-effect3406"
       is_visible="true" />
    <inkscape:path-effect
       effect="skeletal"
       id="path-effect3402"
       is_visible="true"
       pattern="M 0,5 C 0,2.24 2.24,0 5,0 7.76,0 10,2.24 10,5 10,7.76 7.76,10 5,10 2.24,10 0,7.76 0,5 Z"
       copytype="single_stretched"
       prop_scale="1"
       scale_y_rel="false"
       spacing="0"
       normal_offset="0"
       tang_offset="0"
       prop_units="false"
       vertical_pattern="false"
       fuse_tolerance="0" />
    <inkscape:path-effect
       effect="spiro"
       id="path-effect3400"
       is_visible="true" />
    <inkscape:path-effect
       effect="skeletal"
       id="path-effect3396"
       is_visible="true"
       pattern="m 26.829268,20.853659 c 0,-2.76 2.24,-5 5,-5 2.76,0 5,2.24 5,5 0,2.76 -2.24,5 -5,5 -2.76,0 -5,-2.24 -5,-5 z"
       copytype="single_stretched"
       prop_scale="1"
       scale_y_rel="false"
       spacing="0"
       normal_offset="0"
       tang_offset="0"
       prop_units="false"
       vertical_pattern="false"
       fuse_tolerance="0" />
    <inkscape:path-effect
       effect="skeletal"
       id="path-effect3392"
       is_visible="true"
       pattern="M 0,5 C 0,2.24 2.24,0 5,0 7.76,0 10,2.24 10,5 10,7.76 7.76,10 5,10 2.24,10 0,7.76 0,5 Z"
       copytype="single_stretched"
       prop_scale="1"
       scale_y_rel="false"
       spacing="0"
       normal_offset="0"
       tang_offset="0"
       prop_units="false"
       vertical_pattern="false"
       fuse_tolerance="0" />
    <inkscape:path-effect
       effect="skeletal"
       id="path-effect3388"
       is_visible="true"
       pattern="M 0,5 C 0,2.24 2.24,0 5,0 7.76,0 10,2.24 10,5 10,7.76 7.76,10 5,10 2.24,10 0,7.76 0,5 Z"
       copytype="single_stretched"
       prop_scale="1"
       scale_y_rel="false"
       spacing="0"
       normal_offset="0"
       tang_offset="0"
       prop_units="false"
       vertical_pattern="false"
       fuse_tolerance="0" />
    <inkscape:path-effect
       effect="skeletal"
       id="path-effect3384"
       is_visible="true"
       pattern="M 0,5 C 0,2.24 2.24,0 5,0 7.76,0 10,2.24 10,5 10,7.76 7.76,10 5,10 2.24,10 0,7.76 0,5 Z"
       copytype="single_stretched"
       prop_scale="1"
       scale_y_rel="false"
       spacing="0"
       normal_offset="0"
       tang_offset="0"
       prop_units="false"
       vertical_pattern="false"
       fuse_tolerance="0" />
    <inkscape:path-effect
       effect="skeletal"
       id="path-effect3380"
       is_visible="true"
       pattern="M 0,5 C 0,2.24 2.24,0 5,0 7.76,0 10,2.24 10,5 10,7.76 7.76,10 5,10 2.24,10 0,7.76 0,5 Z"
       copytype="single_stretched"
       prop_scale="1"
       scale_y_rel="false"
       spacing="0"
       normal_offset="0"
       tang_offset="0"
       prop_units="false"
       vertical_pattern="false"
       fuse_tolerance="0" />
    <inkscape:path-effect
       effect="skeletal"
       id="path-effect3376"
       is_visible="true"
       pattern="M 0,5 C 0,2.24 2.24,0 5,0 7.76,0 10,2.24 10,5 10,7.76 7.76,10 5,10 2.24,10 0,7.76 0,5 Z"
       copytype="single_stretched"
       prop_scale="1"
       scale_y_rel="false"
       spacing="0"
       normal_offset="0"
       tang_offset="0"
       prop_units="false"
       vertical_pattern="false"
       fuse_tolerance="0" />
    <inkscape:path-effect
       effect="skeletal"
       id="path-effect3372"
       is_visible="true"
       pattern="M 0,5 C 0,2.24 2.24,0 5,0 7.76,0 10,2.24 10,5 10,7.76 7.76,10 5,10 2.24,10 0,7.76 0,5 Z"
       copytype="single_stretched"
       prop_scale="1"
       scale_y_rel="false"
       spacing="0"
       normal_offset="0"
       tang_offset="0"
       prop_units="false"
       vertical_pattern="false"
       fuse_tolerance="0" />
    <inkscape:path-effect
       effect="skeletal"
       id="path-effect3368"
       is_visible="true"
       pattern="M 0,5 C 0,2.24 2.24,0 5,0 7.76,0 10,2.24 10,5 10,7.76 7.76,10 5,10 2.24,10 0,7.76 0,5 Z"
       copytype="single_stretched"
       prop_scale="1"
       scale_y_rel="false"
       spacing="0"
       normal_offset="0"
       tang_offset="0"
       prop_units="false"
       vertical_pattern="false"
       fuse_tolerance="0" />
    <inkscape:path-effect
       effect="skeletal"
       id="path-effect3364"
       is_visible="true"
       pattern="M 0,5 C 0,2.24 2.24,0 5,0 7.76,0 10,2.24 10,5 10,7.76 7.76,10 5,10 2.24,10 0,7.76 0,5 Z"
       copytype="single_stretched"
       prop_scale="1"
       scale_y_rel="false"
       spacing="0"
       normal_offset="0"
       tang_offset="0"
       prop_units="false"
       vertical_pattern="false"
       fuse_tolerance="0" />
    <inkscape:path-effect
       effect="skeletal"
       id="path-effect3420-7"
       is_visible="true"
       pattern="m 6.918376,273.06907 c 0,-2.76 2.2399999,-5 5,-5 2.76,0 5,2.24 5,5 0,2.76 -2.24,5 -5,5 -2.7600001,0 -5,-2.24 -5,-5 z"
       copytype="single_stretched"
       prop_scale="1"
       scale_y_rel="false"
       spacing="0"
       normal_offset="0"
       tang_offset="0"
       prop_units="false"
       vertical_pattern="false"
       fuse_tolerance="0" />
    <inkscape:path-effect
       effect="skeletal"
       id="path-effect3420-7-6"
       is_visible="true"
       pattern="m 9.9721064,38.46302 c 0,-2.76 2.2399996,-5 4.9999996,-5 2.76,0 5,2.24 5,5 0,2.76 -2.24,5 -5,5 -2.76,0 -4.9999996,-2.24 -4.9999996,-5 z"
       copytype="single_stretched"
       prop_scale="1"
       scale_y_rel="false"
       spacing="0"
       normal_offset="0"
       tang_offset="0"
       prop_units="false"
       vertical_pattern="false"
       fuse_tolerance="0" />
    <inkscape:path-effect
       effect="skeletal"
       id="path-effect3420-7-6-7"
       is_visible="true"
       pattern="m 2.7010505,33.900039 c 0,-2.76 2.24,-5 5.0000001,-5 2.7600004,0 5.0000004,2.24 5.0000004,5 0,2.76 -2.24,5 -5.0000004,5 -2.7600001,0 -5.0000001,-2.24 -5.0000001,-5 z"
       copytype="single_stretched"
       prop_scale="1"
       scale_y_rel="false"
       spacing="0"
       normal_offset="0"
       tang_offset="0"
       prop_units="false"
       vertical_pattern="false"
       fuse_tolerance="0" />
    <inkscape:path-effect
       effect="skeletal"
       id="path-effect3420-7-6-7-7"
       is_visible="true"
       pattern="m 172.54475,-76.555758 c 0,-2.76 2.24,-5 5,-5 2.76,0 5,2.24 5,5 0,2.76 -2.24,5 -5,5 -2.76,0 -5,-2.24 -5,-5 z"
       copytype="single_stretched"
       prop_scale="1"
       scale_y_rel="false"
       spacing="0"
       normal_offset="0"
       tang_offset="0"
       prop_units="false"
       vertical_pattern="false"
       fuse_tolerance="0" />
    <inkscape:path-effect
       effect="skeletal"
       id="path-effect3420-7-6-7-5"
       is_visible="true"
       pattern="m 183.08134,-59.531369 c 0,-2.76 2.24,-5 5,-5 2.76,0 5,2.24 5,5 0,2.76 -2.24,5 -5,5 -2.76,0 -5,-2.24 -5,-5 z"
       copytype="single_stretched"
       prop_scale="1"
       scale_y_rel="false"
       spacing="0"
       normal_offset="0"
       tang_offset="0"
       prop_units="false"
       vertical_pattern="false"
       fuse_tolerance="0" />
  </defs>
  <sodipodi:namedview
     id="base"
     pagecolor="#ffffff"
     bordercolor="#666666"
     borderopacity="1.0"
     inkscape:pageopacity="0.0"
     inkscape:pageshadow="2"
     inkscape:zoom="0.82"
     inkscape:cx="201.60152"
     inkscape:cy="780.62718"
     inkscape:document-units="px"
     inkscape:current-layer="layer2"
     showgrid="false"
     inkscape:object-paths="true"
     inkscape:snap-intersection-paths="false"
     inkscape:window-width="1131"
     inkscape:window-height="619"
     inkscape:window-x="1369"
     inkscape:window-y="419"
     inkscape:window-maximized="0" />
  <metadata
     id="metadata7">
    <rdf:RDF>
      <cc:Work
         rdf:about="">
        <dc:format>image/svg+xml</dc:format>
        <dc:type
           rdf:resource="http://purl.org/dc/dcmitype/StillImage" />
        <dc:title />
      </cc:Work>
    </rdf:RDF>
  </metadata>
  <g
     inkscape:label="Layer 1"
     inkscape:groupmode="layer"
     id="layer1">
    <path
       style="fill:#d4aa00;fill-rule:evenodd;stroke:none;stroke-width:1px;stroke-linecap:butt;stroke-linejoin:miter;stroke-opacity:1"
       d="m 298.44953,276.51435 c 0.11431,0.0128 3.57505,19.29093 -7.16346,47.57647 -3.60998,9.54191 -9.4438,20.3718 -18.84923,29.24031 -6.95034,6.47426 -15.64923,11.50931 -25.44877,14.52418 -3.77168,1.15476 -7.6276,2.03236 -11.55249,2.68 -5.65392,0.93294 -11.2697,1.35862 -16.67656,1.49755 -9.85391,0.26865 -19.75218,-0.3236 -28.40267,-0.85325 -10.13887,-0.60934 -18.105,-1.1449 -26.56993,-0.96307 -9.29289,0.22846 -16.46064,1.20742 -22.89178,3.39836 0,0 0,0 0,0 -3.94746,1.33139 -7.18504,2.97345 -9.82725,4.63452 -6.33949,3.97358 -8.93427,7.53591 -9.77397,6.92505 -0.39504,-0.28739 0.88333,-4.83544 7.10834,-10.42673 2.5884,-2.31953 5.97909,-4.6892 10.25016,-6.67998 1e-5,0 1e-5,0 1e-5,0 6.87514,-3.18435 14.94315,-5.08572 24.71113,-5.86289 8.80028,-0.72625 17.37665,-0.5869 27.4016,-0.30731 8.62132,0.23118 18.43965,0.60065 27.66294,0.23142 5.09863,-0.2126 10.29408,-0.62846 15.39216,-1.45693 3.54245,-0.57567 6.96576,-1.33859 10.26394,-2.33998 8.46468,-2.5553 15.9927,-6.68799 21.98139,-11.99745 8.24172,-7.204 13.91498,-16.75712 17.85138,-25.31657 11.81651,-25.79543 11.45329,-44.84866 14.53306,-44.5037 z"
       id="path3418-9-4"
       inkscape:original-d="M 298.44953,276.51435 C 281.42336,428.52036 161.57782,329.79915 121.29342,385.17447"
       inkscape:connector-curvature="0"
       sodipodi:nodetypes="cc"
       inkscape:path-effect="#path-effect3420-7-6" />
    <path
       style="fill:#d4aa00;fill-rule:evenodd;stroke:none;stroke-width:1px;stroke-linecap:butt;stroke-linejoin:miter;stroke-opacity:1"
       d="m 295.37649,271.56149 c -1.08618,2.90245 -17.91217,-6.04424 -46.26251,-7.18114 -9.41421,-0.36348 -20.50054,0.37216 -30.65448,4.4613 -7.44488,2.93744 -14.53704,7.78011 -20.64649,14.1719 -2.38561,2.48791 -4.61518,5.19531 -6.73171,8.0937 -3.04598,4.17118 -5.76809,8.61594 -8.26513,13.06633 -4.50338,8.0576 -8.61732,16.98014 -12.31286,24.77267 -4.28761,9.0661 -8.0447,16.77699 -12.67501,24.29581 -5.11365,8.3587 -10.46045,14.69272 -16.41147,19.38238 0,0 -1e-5,0 -1e-5,0 -3.70817,2.9077 -7.35579,4.85887 -10.5956,6.11729 -7.80314,3.02064 -12.43733,2.10231 -12.51482,1.61998 -0.16471,-1.02524 4.18625,-1.72691 10.59863,-5.58174 2.677,-1.6044 5.60649,-3.74832 8.5802,-6.66586 0,0 1e-5,0 1e-5,0 4.86422,-4.74332 8.98105,-10.69199 13.39039,-18.87536 3.99307,-7.46616 7.12067,-14.81219 11.16579,-24.12911 3.44258,-7.95362 7.39405,-17.04826 12.09314,-25.71373 2.57083,-4.7586 5.49192,-9.57372 8.88261,-14.19329 2.35378,-3.20685 4.88141,-6.24813 7.61807,-9.08886 7.12337,-7.37415 15.55009,-12.85254 24.46886,-16.12038 12.16489,-4.37356 24.46242,-4.67455 34.605,-3.57537 30.08298,3.22512 45.70771,15.03575 45.66739,15.14348 z"
       id="path3418-9-4-0"
       inkscape:original-d="M 295.37649,271.56149 C 152.12242,217.95193 185.91759,369.49966 118.3064,380.36171"
       inkscape:connector-curvature="0"
       sodipodi:nodetypes="cc"
       inkscape:path-effect="#path-effect3420-7-6-7" />
    <path
       style="fill:#d4aa00;fill-rule:evenodd;stroke:none;stroke-width:1px;stroke-linecap:butt;stroke-linejoin:miter;stroke-opacity:1"
       d="m 298.30273,272.20013 c -0.11489,-0.006 -4.79211,-19.02516 4.12967,-47.93518 2.99715,-9.75178 8.1319,-20.93007 16.95555,-30.3776 6.52546,-6.90229 14.88727,-12.47925 24.47572,-16.10996 3.6908,-1.39179 7.48326,-2.51232 11.35913,-3.40774 5.58331,-1.28989 11.16075,-2.0711 16.5479,-2.55288 9.817,-0.89347 19.7329,-0.93059 28.39957,-0.95099 10.1571,-0.0353 18.14116,-0.006 26.57749,-0.72509 9.25965,-0.81775 16.35083,-2.24962 22.62996,-4.84428 0,0 0,0 0,0 3.85501,-1.57922 6.98185,-3.42344 9.51332,-5.24885 6.07453,-4.36788 8.43801,-8.08771 9.31478,-7.53137 0.41249,0.26174 -0.57467,4.88175 -6.4323,10.85682 -2.43597,2.47912 -5.66945,5.0592 -9.80557,7.31702 0,0 0,0 0,0 -6.65919,3.61425 -14.59028,6.02381 -24.28924,7.41932 -8.73645,1.28328 -17.30438,1.68849 -27.32686,2.04568 -8.61861,0.31642 -18.4406,0.57079 -27.62186,1.52462 -5.07486,0.53575 -10.23345,1.28049 -15.26868,2.43083 -3.49877,0.79932 -6.86676,1.77795 -10.09475,2.98664 -8.28544,3.08735 -15.53602,7.68946 -21.17568,13.36827 -7.76792,7.71252 -12.82347,17.60643 -16.20873,26.39844 -10.15563,26.49335 -8.58396,45.48512 -11.67942,45.3363 z"
       id="path3418-9-4-0-2"
       inkscape:original-d="M 298.30273,272.20013 C 305.64781,119.42001 431.51692,210.33644 468.20582,152.51619"
       inkscape:connector-curvature="0"
       sodipodi:nodetypes="cc"
       inkscape:path-effect="#path-effect3420-7-6-7-7" />
    <path
       style="fill:#d4aa00;fill-rule:evenodd;stroke:none;stroke-width:1px;stroke-linecap:butt;stroke-linejoin:miter;stroke-opacity:1"
       d="m 299.04758,277.57073 c 0.92479,-2.95783 18.21768,5.04925 46.58762,4.62413 9.41995,-0.15521 20.44899,-1.49988 30.36248,-6.14166 7.27193,-3.34273 14.08682,-8.5684 19.83522,-15.28674 2.24507,-2.61543 4.32226,-5.44144 6.27606,-8.45192 2.8118,-4.33251 5.28516,-8.92034 7.53348,-13.50142 4.05309,-8.29324 7.66973,-17.42866 10.93079,-25.41278 3.78215,-9.28833 7.10916,-17.19431 11.31864,-24.95657 4.64586,-8.62747 9.63596,-15.24616 15.31986,-20.25624 0,0 0,0 0,0 3.54252,-3.10738 7.07722,-5.25634 10.24287,-6.69116 7.62506,-3.44552 12.30277,-2.78364 12.40669,-2.3063 0.22088,1.01462 -4.08486,1.95469 -10.27536,6.15659 -2.58464,1.7493 -5.3917,4.0512 -8.20034,7.12798 0,0 0,1e-5 0,1e-5 -4.5958,5.00383 -8.37899,11.17007 -12.33126,19.58371 -3.5761,7.67461 -6.29466,15.18164 -9.82088,24.70707 -2.99962,8.13103 -6.44456,17.42936 -10.65961,26.34032 -2.30504,4.89288 -4.95669,9.86147 -8.088,14.66064 -2.17372,3.33153 -4.53013,6.50732 -7.10631,9.49436 -6.70672,7.75502 -14.81915,13.68889 -23.54456,17.44263 -11.90574,5.03645 -24.16807,6.0138 -34.35577,5.4745 -30.21488,-1.56457 -46.46595,-12.49736 -46.43162,-12.60715 z"
       id="path3418-9-4-0-7"
       inkscape:original-d="M 299.04758,277.57073 C 445.03502,323.21481 402.95039,173.75675 469.86129,159.19007"
       inkscape:connector-curvature="0"
       sodipodi:nodetypes="cc"
       inkscape:path-effect="#path-effect3420-7-6-7-5" />
  </g>
  <g
     inkscape:groupmode="layer"
     id="layer2"
     inkscape:label="Layer 2"
     style="display:inline">
    <rect
       style="fill:#800080"
       id="rect3519"
       width="23.170734"
       height="265.85352"
       x="284.14633"
       y="158.94757" />
    <rect
       style="fill:#800080"
       id="rect3519-5"
       width="23.170734"
       height="265.85352"
       x="137.1297"
       y="-426.33105"
       transform="matrix(0.00336121,0.99999435,-0.99999435,0.00336121,0,0)" />
  </g>
</svg>
